<svg width="18" height="18" viewBox="0 0 18 18" fill="none" xmlns="http://www.w3.org/2000/svg">
<path d="M8.33426 1.04893C8.54381 0.404016 9.45619 0.404018 9.66574 1.04894L11.3125 6.11713C11.4062 6.40554 11.675 6.60081 11.9782 6.60081H17.3072C17.9854 6.60081 18.2673 7.46854 17.7187 7.86712L13.4074 10.9994C13.1621 11.1777 13.0594 11.4936 13.1531 11.7821L14.7999 16.8503C15.0094 17.4952 14.2713 18.0315 13.7227 17.6329L9.41145 14.5006C9.16611 14.3223 8.83389 14.3223 8.58855 14.5006L4.27729 17.6329C3.72869 18.0315 2.99056 17.4952 3.2001 16.8503L4.84686 11.7821C4.94057 11.4936 4.83791 11.1777 4.59257 10.9994L0.281306 7.86712C-0.267294 7.46854 0.0146506 6.60081 0.692757 6.60081H6.02177C6.32502 6.60081 6.59379 6.40554 6.68751 6.11712L8.33426 1.04893Z" fill="#F5C878"/>
</svg>
